<svg width="80" height="80" viewBox="0 0 80 80" fill="none" xmlns="http://www.w3.org/2000/svg">
<g clip-path="url(#clip0_1343_46)">
<path d="M38.535 22.7283C39.5442 21.2142 41.6075 22.5155 41.1079 24.015C40.4647 25.9451 37.8918 28.5186 34.6757 28.5186H23.0978C17.3088 28.5186 12.8063 24.015 12.8063 19.5114V11.791C12.8063 9.86088 14.0927 8.57414 17.3088 8.57414H23.741C25.0274 8.57414 26.506 7.60883 26.9571 6.64403C30.3515 -0.617557 42.887 -2.87733 49.4697 4.71392L61.6909 18.2247C63.5398 20.3196 62.9773 23.3717 61.6909 24.6584L50.7561 35.5957C47.4101 38.9424 40.817 35.4713 43.0337 29.8054L48.8265 15.0078C53.0281 4.26781 35.0545 -2.13926 29.5299 7.93077C28.7012 9.44115 27.4495 11.1103 23.741 11.1476C21.1358 11.1737 21.6935 11.1947 18.5952 11.1476C21.8113 12.4344 18.5952 17.5813 16.0224 17.5813C16.1727 21.3064 19.8817 25.3018 23.0978 25.3018H34.6757C36.6053 25.3018 37.2486 24.6584 38.535 22.7283Z" fill="#0085FF"/>
<path d="M35.7018 14.4661C35.7018 13.4932 36.4902 12.7046 37.4629 12.7046C38.4355 12.7046 39.224 13.4932 39.224 14.4661C39.224 15.439 38.4355 16.2277 37.4629 16.2277C36.4902 16.2277 35.7018 15.439 35.7018 14.4661Z" fill="#0085FF"/>
<path d="M40.2939 18.4617C40.2939 17.4888 41.0824 16.7002 42.0551 16.7002C43.0276 16.7002 43.8162 17.4888 43.8162 18.4617C43.8162 19.4346 43.0276 20.2233 42.0551 20.2233C41.0824 20.2233 40.2939 19.4346 40.2939 18.4617Z" fill="#0085FF"/>
<path d="M42.6658 13.2306C42.6658 12.811 43.0058 12.4709 43.4253 12.4709C43.8448 12.4709 44.1849 12.811 44.1849 13.2306C44.1849 13.6502 43.8448 13.9905 43.4253 13.9905C43.0058 13.9905 42.6658 13.6502 42.6658 13.2306Z" fill="#0085FF"/>
<path d="M52.7632 50.1255C52.7632 49.1665 53.5403 48.3892 54.4991 48.3892C55.4578 48.3892 56.235 49.1665 56.235 50.1255C56.235 51.0844 55.4578 51.8618 54.4991 51.8618C53.5403 51.8618 52.7632 51.0844 52.7632 50.1255Z" fill="#0085FF"/>
<path d="M41.14 50.1255C41.14 49.1665 41.9173 48.3892 42.8761 48.3892C43.8347 48.3892 44.612 49.1665 44.612 50.1255C44.612 51.0844 43.8347 51.8618 42.8761 51.8618C41.9173 51.8618 41.14 51.0844 41.14 50.1255Z" fill="#0085FF"/>
<path d="M29.517 50.1255C29.517 49.1665 30.2942 48.3892 31.2529 48.3892C32.2117 48.3892 32.9889 49.1665 32.9889 50.1255C32.9889 51.0844 32.2117 51.8618 31.2529 51.8618C30.2942 51.8618 29.517 51.0844 29.517 50.1255Z" fill="#0085FF"/>
<path d="M46.8513 44.7418C46.8513 43.7828 47.6286 43.0055 48.5874 43.0055C49.546 43.0055 50.3233 43.7828 50.3233 44.7418C50.3233 45.7008 49.546 46.4782 48.5874 46.4782C47.6286 46.4782 46.8513 45.7008 46.8513 44.7418Z" fill="#0085FF"/>
<path d="M35.429 44.7418C35.429 43.7828 36.2061 43.0055 37.1649 43.0055C38.1235 43.0055 38.9008 43.7828 38.9008 44.7418C38.9008 45.7008 38.1235 46.4782 37.1649 46.4782C36.2061 46.4782 35.429 45.7008 35.429 44.7418Z" fill="#0085FF"/>
<path d="M18.3014 16.4465C17.6081 17.1212 16.788 17.5804 16.0221 17.5804C16.1725 21.3056 19.8814 25.3008 23.0975 25.3008H27.1015C21.5589 23.957 17.7882 19.8547 18.3014 16.4465Z" fill="#0085FF"/>
<path d="M35.1185 10.2627C36.0865 9.00744 37.382 9.49177 38.3725 10.3813C39.4869 11.3824 40.9453 10.1732 40.2919 8.8363C39.2813 6.76876 35.5799 5.36583 33.3461 8.55952C32.2174 10.1732 34.0427 11.6577 35.1185 10.2627Z" fill="#0085FF"/>
<path d="M48.0292 50.1255C48.0292 49.7617 48.3239 49.4668 48.6876 49.4668C49.0512 49.4668 49.3461 49.7617 49.3461 50.1255C49.3461 50.4892 49.0512 50.7842 48.6876 50.7842C48.3239 50.7842 48.0292 50.4892 48.0292 50.1255Z" fill="#0085FF"/>
<path d="M36.406 50.1255C36.406 49.7617 36.7009 49.4668 37.0645 49.4668C37.4282 49.4668 37.7231 49.7617 37.7231 50.1255C37.7231 50.4892 37.4282 50.7842 37.0645 50.7842C36.7009 50.7842 36.406 50.4892 36.406 50.1255Z" fill="#0085FF"/>
<path d="M42.2175 44.7418C42.2175 44.3781 42.5124 44.0831 42.8761 44.0831C43.2397 44.0831 43.5345 44.3781 43.5345 44.7418C43.5345 45.1056 43.2397 45.4005 42.8761 45.4005C42.5124 45.4005 42.2175 45.1056 42.2175 44.7418Z" fill="#0085FF"/>
<path d="M53.6401 44.7418C53.6401 44.3781 53.9349 44.0831 54.2985 44.0831C54.6622 44.0831 54.9571 44.3781 54.9571 44.7418C54.9571 45.1056 54.6622 45.4005 54.2985 45.4005C53.9349 45.4005 53.6401 45.1056 53.6401 44.7418Z" fill="#0085FF"/>
<path d="M30.795 44.7418C30.795 44.3781 31.0899 44.0831 31.4536 44.0831C31.8172 44.0831 32.1121 44.3781 32.1121 44.7418C32.1121 45.1056 31.8172 45.4005 31.4536 45.4005C31.0899 45.4005 30.795 45.1056 30.795 44.7418Z" fill="#0085FF"/>
<path d="M23.7711 50.1254C23.7711 49.5931 24.2026 49.1616 24.7347 49.1616C25.2669 49.1616 25.6982 49.5931 25.6982 50.1254C25.6982 50.6576 25.2669 51.0892 24.7347 51.0892C24.2026 51.0892 23.7711 50.6576 23.7711 50.1254Z" fill="#0085FF"/>
<path d="M35.1375 38.8102C35.1375 38.2779 35.5689 37.8464 36.101 37.8464C36.6332 37.8464 37.0645 38.2779 37.0645 38.8102C37.0645 39.3424 36.6332 39.774 36.101 39.774C35.5689 39.774 35.1375 39.3424 35.1375 38.8102Z" fill="#0085FF"/>
<path d="M25.9207 44.7419C25.9207 44.0895 26.4494 43.5607 27.1016 43.5607C27.7537 43.5607 28.2824 44.0895 28.2824 44.7419C28.2824 45.3943 27.7537 45.9231 27.1016 45.9231C26.4494 45.9231 25.9207 45.3943 25.9207 44.7419Z" fill="#0085FF"/>
<path d="M50.6587 41.3087C50.6587 40.6563 51.1874 40.1274 51.8396 40.1274C52.4919 40.1274 53.0206 40.6563 53.0206 41.3087C53.0206 41.9609 52.4919 42.4898 51.8396 42.4898C51.1874 42.4898 50.6587 41.9609 50.6587 41.3087Z" fill="#0085FF"/>
<path d="M29.4781 38.8103C29.4781 38.0828 30.0677 37.4929 30.7951 37.4929C31.5224 37.4929 32.1121 38.0828 32.1121 38.8103C32.1121 39.5378 31.5224 40.1275 30.7951 40.1275C30.0677 40.1275 29.4781 39.5378 29.4781 38.8103Z" fill="#0085FF"/>
<path d="M40.9006 38.8103C40.9006 38.0828 41.4902 37.4929 42.2176 37.4929C42.9449 37.4929 43.5345 38.0828 43.5345 38.8103C43.5345 39.5378 42.9449 40.1275 42.2176 40.1275C41.4902 40.1275 40.9006 39.5378 40.9006 38.8103Z" fill="#0085FF"/>
<path d="M37.4629 32.9697C37.4629 32.2422 38.0525 31.6523 38.7798 31.6523C39.5072 31.6523 40.0969 32.2422 40.0969 32.9697C40.0969 33.6972 39.5072 34.2869 38.7798 34.2869C38.0525 34.2869 37.4629 33.6972 37.4629 32.9697Z" fill="#0085FF"/>
<path d="M54.9793 32.1984L52.8567 34.3215L61.0577 51.6925C61.3914 52.3993 62.2324 52.7018 62.9391 52.368C63.6458 52.0341 63.9482 51.189 63.6145 50.4822L54.9793 32.1984Z" fill="#0085FF"/>
<path d="M27.152 29.0377L17.2224 50.1363C16.8896 50.8436 17.1946 51.6853 17.9018 52.0182C18.6089 52.351 19.4504 52.046 19.7832 51.3386L29.331 31.0564L32.8888 35.0252C33.4104 35.6072 34.3047 35.6555 34.8867 35.1337C35.4687 34.6119 35.5169 33.7174 34.9953 33.1352L31.3208 29.0377C29.9846 29.0375 28.537 29.0376 27.152 29.0377Z" fill="#0085FF"/>
<path d="M5.84351 56.9268C6.42678 56.9268 6.97789 57.0347 7.49684 57.2505C8.01591 57.4663 8.47954 57.7785 8.88773 58.1867C9.29605 58.595 9.60801 59.0617 9.82374 59.5867C10.0396 60.1117 10.1474 60.66 10.1474 61.2317C10.1474 61.815 10.0396 62.3662 9.82374 62.8854C9.60801 63.4046 9.29605 63.8683 8.88773 64.2766C8.47954 64.6849 8.01591 64.9971 7.49684 65.2129C6.97789 65.4286 6.42678 65.5366 5.84351 65.5366H2.65932V67.8466C2.65932 68.2198 2.53106 68.5348 2.27442 68.7915C2.0179 69.0482 1.70298 69.1765 1.32966 69.1765C0.956465 69.1765 0.641546 69.0482 0.384902 68.7915C0.128387 68.5348 0 68.2198 0 67.8466V58.2567C0 57.8834 0.128387 57.5685 0.384902 57.3118C0.641546 57.055 0.956465 56.9268 1.32966 56.9268H5.84351ZM2.65932 59.5867V62.8767H5.84351C6.06516 62.8767 6.27807 62.8329 6.4821 62.7454C6.68625 62.6579 6.86121 62.5412 7.00696 62.3954C7.15284 62.2496 7.26939 62.0775 7.35687 61.8792C7.44435 61.6809 7.48809 61.465 7.48809 61.2317C7.48809 61.01 7.44435 60.8 7.35687 60.6017C7.26939 60.4034 7.15284 60.2284 7.00696 60.0767C6.86121 59.925 6.68625 59.8055 6.4821 59.718C6.27807 59.6305 6.06516 59.5867 5.84351 59.5867H2.65932Z" fill="white"/>
<path d="M15.676 57.2417C16.4808 56.9035 17.3031 56.7343 18.1429 56.7343C18.9827 56.7343 19.805 56.9035 20.6098 57.2417C21.3563 57.5567 22.0211 58.0059 22.6043 58.5892C23.1875 59.1609 23.6424 59.8317 23.9689 60.6017C24.1323 60.9867 24.2548 61.3862 24.3363 61.8004C24.418 62.2146 24.4588 62.6316 24.4588 63.0516C24.4588 63.9266 24.2956 64.7491 23.9689 65.5191C23.654 66.2658 23.1991 66.9366 22.6043 67.5315C22.0211 68.1148 21.3563 68.564 20.6098 68.879C19.84 69.2057 19.0177 69.369 18.1429 69.369C17.2681 69.369 16.4458 69.2057 15.676 68.879C14.9297 68.564 14.2648 68.1148 13.6816 67.5315C13.0984 66.9366 12.6435 66.2658 12.3169 65.5191C11.9904 64.7491 11.827 63.9266 11.827 63.0516C11.827 62.6316 11.8679 62.2146 11.9495 61.8004C12.0312 61.3862 12.1537 60.9867 12.3169 60.6017C12.6552 59.8317 13.1101 59.1609 13.6816 58.5892C14.2648 58.0059 14.9297 57.5567 15.676 57.2417ZM14.4863 63.0516C14.4863 63.5649 14.5826 64.0433 14.775 64.4866C14.9675 64.9299 15.2299 65.3149 15.5623 65.6416C15.8947 65.9683 16.2826 66.2278 16.7258 66.4203C17.1691 66.6128 17.6415 66.7091 18.1429 66.7091C18.6445 66.7091 19.1169 66.6128 19.5601 66.4203C20.0034 66.2278 20.3911 65.9683 20.7235 65.6416C21.0559 65.3149 21.3184 64.9299 21.5108 64.4866C21.7033 64.0433 21.7995 63.5649 21.7995 63.0516C21.7995 62.5499 21.7033 62.0774 21.5108 61.6342C21.3184 61.1909 21.0559 60.8029 20.7235 60.4704C20.3911 60.1379 20.0034 59.8754 19.5601 59.6829C19.1169 59.4905 18.6445 59.3942 18.1429 59.3942C17.6415 59.3942 17.1691 59.4905 16.7258 59.6829C16.2826 59.8754 15.8947 60.1379 15.5623 60.4704C15.2299 60.8029 14.9675 61.1909 14.775 61.6342C14.5826 62.0774 14.4863 62.5499 14.4863 63.0516Z" fill="white"/>
<path d="M26.9781 58.2567C26.9781 57.8834 27.1065 57.5685 27.3631 57.3118C27.6197 57.055 27.9346 56.9268 28.3078 56.9268C28.6811 56.9268 28.9961 57.055 29.2526 57.3118C29.5092 57.5685 29.6375 57.8834 29.6375 58.2567V67.8466C29.6375 68.2198 29.5092 68.5348 29.2526 68.7915C28.9961 69.0482 28.6811 69.1765 28.3078 69.1765C27.9346 69.1765 27.6197 69.0482 27.3631 68.7915C27.1065 68.5348 26.9781 68.2198 26.9781 67.8466V58.2567Z" fill="white"/>
<path d="M33.5915 57.0143C33.8481 56.921 34.1105 56.9093 34.3788 56.9793C34.6471 57.0493 34.8745 57.1893 35.0611 57.3992C35.7143 58.1925 36.3792 58.9975 37.0556 59.8142C37.3472 60.1642 37.6504 60.5287 37.9653 60.9079C38.2803 61.2871 38.6011 61.6692 38.9276 62.0542C39.2542 62.4392 39.5779 62.8212 39.8986 63.2004C40.2194 63.5796 40.5314 63.9383 40.8346 64.2766V58.2567C40.8346 57.8834 40.963 57.5685 41.2195 57.3118C41.4761 57.055 41.7911 56.9268 42.1643 56.9268C42.5376 56.9268 42.8525 57.055 43.109 57.3118C43.3657 57.5685 43.4939 57.8834 43.4939 58.2567V67.8466C43.4939 68.1148 43.4152 68.3658 43.2577 68.599C43.1003 68.8323 42.8933 68.9957 42.6366 69.089C42.3684 69.1823 42.1002 69.194 41.8318 69.124C41.5636 69.054 41.342 68.914 41.167 68.704C40.5022 67.9108 39.8316 67.1058 39.155 66.2891C38.5719 65.5891 37.945 64.8454 37.2743 64.0579C36.6036 63.2704 35.9708 62.5267 35.376 61.8267V67.8466C35.376 68.2198 35.2477 68.5348 34.9911 68.7915C34.7346 69.0482 34.4197 69.1765 34.0463 69.1765C33.6731 69.1765 33.3582 69.0482 33.1016 68.7915C32.8451 68.5348 32.7167 68.2198 32.7167 67.8466V58.2567C32.7167 57.9884 32.7954 57.7375 32.9529 57.5043C33.1103 57.271 33.3232 57.1076 33.5915 57.0143Z" fill="white"/>
<path d="M54.4461 56.9268C54.8195 56.9268 55.1344 57.055 55.3909 57.3118C55.6475 57.5685 55.7758 57.8834 55.7758 58.2567C55.7758 58.63 55.6475 58.945 55.3909 59.2017C55.1344 59.4584 54.8195 59.5867 54.4461 59.5867H51.8743V67.8466C51.8743 68.2198 51.746 68.5348 51.4894 68.7915C51.2329 69.0482 50.918 69.1765 50.5446 69.1765C50.1714 69.1765 49.8565 69.0482 49.5999 68.7915C49.3434 68.5348 49.215 68.2198 49.215 67.8466V59.5867H46.6431C46.2699 59.5867 45.955 59.4584 45.6984 59.2017C45.4419 58.945 45.3135 58.63 45.3135 58.2567C45.3135 57.8834 45.4419 57.5685 45.6984 57.3118C45.955 57.055 46.2699 56.9268 46.6431 56.9268H54.4461Z" fill="white"/>
<path d="M65.8182 66.5166C66.1916 66.5166 66.5065 66.6449 66.763 66.9016C67.0196 67.1583 67.1479 67.4733 67.1479 67.8466C67.1479 68.2198 67.0196 68.5348 66.763 68.7915C66.5065 69.0482 66.1916 69.1765 65.8182 69.1765H58.925C58.5518 69.1765 58.2369 69.0482 57.9802 68.7915C57.7237 68.5348 57.5953 68.2198 57.5953 67.8466V58.2567C57.5953 57.8834 57.7237 57.5685 57.9802 57.3118C58.2369 57.055 58.5518 56.9268 58.925 56.9268H65.8182C66.1916 56.9268 66.5065 57.055 66.763 57.3118C67.0196 57.5685 67.1479 57.8834 67.1479 58.2567C67.1479 58.63 67.0196 58.945 66.763 59.2017C66.5065 59.4584 66.1916 59.5867 65.8182 59.5867H60.2547V61.7217H64.9785C65.3518 61.7217 65.6667 61.85 65.9232 62.1067C66.1799 62.3634 66.3081 62.6784 66.3081 63.0516C66.3081 63.4249 66.1799 63.7399 65.9232 63.9966C65.6667 64.2533 65.3518 64.3816 64.9785 64.3816H60.2547V66.5166H65.8182Z" fill="white"/>
<path d="M79.6397 67.0066C79.8963 67.2749 80.0158 67.5928 79.9983 67.9603C79.9809 68.3278 79.8381 68.634 79.5697 68.879C79.3015 69.1357 78.9836 69.2553 78.6162 69.2378C78.2488 69.2203 77.9368 69.0773 77.6802 68.809L74.6885 65.5366H72.3266V67.8466C72.3266 68.2198 72.1983 68.5348 71.9417 68.7915C71.6851 69.0482 71.3702 69.1765 70.9969 69.1765C70.6237 69.1765 70.3088 69.0482 70.0521 68.7915C69.7956 68.5348 69.6672 68.2198 69.6672 67.8466V58.2567C69.6672 57.8834 69.7956 57.5685 70.0521 57.3118C70.3088 57.055 70.6237 56.9268 70.9969 56.9268H75.4932C76.0765 56.9268 76.6276 57.0347 77.1466 57.2505C77.6656 57.4663 78.1293 57.7785 78.5375 58.1867C78.9458 58.595 79.2577 59.0617 79.4735 59.5867C79.6893 60.1117 79.7971 60.66 79.7971 61.2317C79.7971 61.815 79.6893 62.3662 79.4735 62.8854C79.2577 63.4046 78.9458 63.8683 78.5375 64.2766C78.4092 64.4049 78.278 64.5216 78.1438 64.6266C78.0098 64.7316 77.8726 64.8308 77.7327 64.9241L79.6397 67.0066ZM72.3266 62.8767H75.4932C75.7149 62.8767 75.9278 62.8329 76.1318 62.7454C76.336 62.6579 76.5109 62.5412 76.6567 62.3954C76.8026 62.2496 76.9191 62.0775 77.0066 61.8792C77.0941 61.6809 77.1378 61.465 77.1378 61.2317C77.1378 61.01 77.0941 60.8 77.0066 60.6017C76.9191 60.4034 76.8026 60.2284 76.6567 60.0767C76.5109 59.925 76.336 59.8055 76.1318 59.718C75.9278 59.6305 75.7149 59.5867 75.4932 59.5867H72.3266V62.8767Z" fill="white"/>
<path d="M26.3179 73.4634C26.3179 73.2437 26.3934 73.0584 26.5443 72.9075C26.6953 72.7564 26.8806 72.681 27.1 72.681C27.3196 72.681 27.5049 72.7564 27.6558 72.9075C27.8068 73.0584 27.8822 73.2437 27.8822 73.4634V78.3221H31.1549C31.3745 78.3221 31.5597 78.3975 31.7106 78.5486C31.8616 78.6995 31.937 78.8848 31.937 79.1044C31.937 79.324 31.8616 79.5093 31.7106 79.6603C31.5597 79.8113 31.3745 79.8868 31.1549 79.8868H27.1C26.8806 79.8868 26.6953 79.8113 26.5443 79.6603C26.3934 79.5093 26.3179 79.324 26.3179 79.1044V73.4634Z" fill="white"/>
<path d="M39.5321 78.7442C39.6282 78.9363 39.6436 79.1353 39.5784 79.3412C39.5133 79.5471 39.3847 79.698 39.1925 79.7941C39.0004 79.8971 38.8014 79.9159 38.5956 79.8508C38.3898 79.7855 38.2388 79.6568 38.1428 79.4647C38.1085 79.396 38.0707 79.324 38.0295 79.2486C37.961 79.125 37.8615 78.9363 37.7311 78.6824H34.0673C33.937 78.9363 33.8376 79.125 33.7689 79.2486C33.7277 79.324 33.69 79.396 33.6557 79.4647C33.5597 79.6568 33.4087 79.7855 33.2028 79.8508C32.997 79.9159 32.7981 79.8971 32.6059 79.7941C32.4139 79.698 32.2852 79.5471 32.22 79.3412C32.1549 79.1353 32.1737 78.9363 32.2766 78.7442L35.2097 73.1031C35.2784 72.9726 35.3743 72.8697 35.4978 72.7943C35.6213 72.7187 35.7551 72.681 35.8992 72.681C36.0433 72.681 36.1771 72.7187 36.3006 72.7943C36.4241 72.8697 36.5202 72.9726 36.5887 73.1031L39.5321 78.7442ZM37.021 77.2207L35.8992 75.0692L34.7774 77.2207H37.021Z" fill="white"/>
<path d="M44.1324 72.681C44.4206 72.681 44.6916 72.7358 44.9455 72.8457C45.1994 72.9555 45.4207 73.1064 45.6093 73.2987C45.798 73.4908 45.9472 73.7138 46.0569 73.9678C46.1668 74.2216 46.2216 74.4928 46.2216 74.781C46.2216 75.0211 46.1856 75.2459 46.1135 75.4552C46.0415 75.6645 45.9369 75.8584 45.7996 76.0369C45.9918 76.2427 46.1427 76.4777 46.2525 76.742C46.3623 77.0062 46.4171 77.2927 46.4171 77.6015C46.4171 77.9172 46.3572 78.214 46.237 78.492C46.117 78.7699 45.954 79.0118 45.7482 79.2177C45.5424 79.4236 45.3005 79.5865 45.0226 79.7066C44.7448 79.8267 44.4481 79.8868 44.1324 79.8868H41.4772C41.2578 79.8868 41.0725 79.8113 40.9215 79.6603C40.7706 79.5093 40.6951 79.324 40.6951 79.1044V73.4634C40.6951 73.2437 40.7706 73.0584 40.9215 72.9075C41.0725 72.7564 41.2578 72.681 41.4772 72.681H44.1324ZM42.2594 74.2457V75.4089H44.1324C44.2765 75.4089 44.4 75.3523 44.5029 75.2391C44.6058 75.1258 44.6573 74.9902 44.6573 74.8325C44.6573 74.6746 44.6058 74.5373 44.5029 74.4207C44.4 74.304 44.2765 74.2457 44.1324 74.2457H42.2594ZM42.2594 76.7265V78.3221H44.1324C44.3314 78.3221 44.5012 78.2449 44.6419 78.0905C44.7826 77.9361 44.8528 77.749 44.8528 77.5295C44.8528 77.3098 44.7826 77.1211 44.6419 76.9633C44.5012 76.8054 44.3314 76.7265 44.1324 76.7265H42.2594Z" fill="white"/>
<path d="M48.7842 73.0516C49.2508 72.729 49.8374 72.5677 50.544 72.5677C50.894 72.5677 51.2542 72.6054 51.6247 72.681C51.9951 72.7564 52.3142 72.8525 52.5818 72.9692C52.7808 73.0652 52.918 73.2128 52.9934 73.4119C53.0689 73.6108 53.0586 73.8098 52.9625 74.0089C52.8734 74.2078 52.7293 74.3451 52.5303 74.4207C52.3314 74.4961 52.1324 74.4892 51.9334 74.4001C51.7619 74.3245 51.5475 74.2611 51.2902 74.2096C51.0329 74.1582 50.7842 74.1324 50.544 74.1324C50.3588 74.1324 50.189 74.1495 50.0346 74.1839C49.8802 74.2181 49.7551 74.2696 49.659 74.3383C49.5287 74.4343 49.4634 74.5613 49.4634 74.7192C49.4634 74.7672 49.4721 74.8152 49.4892 74.8633C49.5064 74.9113 49.5595 74.9628 49.6487 75.0177C49.7242 75.0657 49.8391 75.1172 49.9935 75.1721C50.1478 75.2269 50.3657 75.275 50.647 75.3162C51.4291 75.4328 52.0466 75.6456 52.4994 75.9544C52.7808 76.1466 53.0072 76.3798 53.1787 76.6544C53.3571 76.9427 53.4462 77.2754 53.4462 77.6529C53.4462 78.0303 53.3639 78.3735 53.1992 78.6823C53.0346 78.9912 52.7979 79.2518 52.4891 79.4647C51.9677 79.8215 51.3194 80 50.544 80C49.9609 80 49.4429 79.9141 48.99 79.7426C48.6539 79.6121 48.3383 79.4338 48.0432 79.2073C47.8717 79.07 47.7723 78.895 47.7448 78.6823C47.7174 78.4695 47.7723 78.2774 47.9094 78.1059C48.0399 77.9342 48.2113 77.8348 48.424 77.8074C48.6368 77.7798 48.8288 77.8348 49.0003 77.9721C49.0621 78.0201 49.1393 78.0715 49.2319 78.1265C49.3245 78.1813 49.4326 78.2311 49.5561 78.2757C49.6796 78.3202 49.822 78.3581 49.9832 78.389C50.1445 78.4198 50.3314 78.4353 50.544 78.4353C50.99 78.4353 51.3434 78.3495 51.6041 78.1779C51.7893 78.0544 51.8819 77.8794 51.8819 77.6529C51.8819 77.598 51.8683 77.5362 51.8408 77.4677C51.8134 77.3989 51.7413 77.3269 51.6247 77.2515C51.5287 77.1897 51.3879 77.1228 51.2027 77.0507C51.0174 76.9787 50.7602 76.9186 50.4308 76.8706C49.7585 76.7677 49.2164 76.5892 48.8048 76.3353C48.5236 76.15 48.3074 75.9304 48.1564 75.6765C47.9849 75.4019 47.8991 75.0828 47.8991 74.7192C47.8991 74.3692 47.9746 74.0517 48.1255 73.767C48.2766 73.4821 48.496 73.2437 48.7842 73.0516Z" fill="white"/>
</g>
<defs>
<clipPath id="clip0_1343_46">
<rect width="80" height="80" fill="white"/>
</clipPath>
</defs>
</svg>
