<svg width="80" height="80" viewBox="0 0 80 80" fill="none" xmlns="http://www.w3.org/2000/svg">
<g clip-path="url(#clip0_1325_384)">
<path d="M38.5349 22.7283C39.5441 21.2142 41.6075 22.5155 41.1078 24.015C40.4646 25.9451 37.8917 28.5186 34.6756 28.5186H23.0977C17.3087 28.5186 12.8062 24.015 12.8062 19.5114V11.791C12.8062 9.86088 14.0926 8.57414 17.3087 8.57414H23.7409C25.0274 8.57414 26.506 7.60883 26.957 6.64403C30.3514 -0.617557 42.887 -2.87733 49.4697 4.71392L61.6908 18.2247C63.5398 20.3196 62.9772 23.3717 61.6908 24.6584L50.7561 35.5957C47.4101 38.9424 40.817 35.4713 43.0336 29.8054L48.8264 15.0078C53.0281 4.26781 35.0545 -2.13926 29.5299 7.93077C28.7012 9.44115 27.4495 11.1103 23.7409 11.1476C21.1358 11.1737 21.6934 11.1947 18.5952 11.1476C21.8113 12.4344 18.5952 17.5813 16.0223 17.5813C16.1727 21.3064 19.8816 25.3018 23.0977 25.3018H34.6756C36.6053 25.3018 37.2485 24.6584 38.5349 22.7283Z" fill="#0E2E57"/>
<path d="M35.7017 14.4661C35.7017 13.4932 36.4901 12.7046 37.4628 12.7046C38.4354 12.7046 39.224 13.4932 39.224 14.4661C39.224 15.439 38.4354 16.2277 37.4628 16.2277C36.4901 16.2277 35.7017 15.439 35.7017 14.4661Z" fill="#0E2E57"/>
<path d="M40.2939 18.4617C40.2939 17.4888 41.0823 16.7002 42.055 16.7002C43.0276 16.7002 43.8161 17.4888 43.8161 18.4617C43.8161 19.4346 43.0276 20.2233 42.055 20.2233C41.0823 20.2233 40.2939 19.4346 40.2939 18.4617Z" fill="#0E2E57"/>
<path d="M42.6657 13.2306C42.6657 12.811 43.0057 12.4709 43.4252 12.4709C43.8447 12.4709 44.1848 12.811 44.1848 13.2306C44.1848 13.6502 43.8447 13.9905 43.4252 13.9905C43.0057 13.9905 42.6657 13.6502 42.6657 13.2306Z" fill="#0E2E57"/>
<path d="M52.7632 50.1255C52.7632 49.1665 53.5403 48.3892 54.4991 48.3892C55.4578 48.3892 56.235 49.1665 56.235 50.1255C56.235 51.0844 55.4578 51.8618 54.4991 51.8618C53.5403 51.8618 52.7632 51.0844 52.7632 50.1255Z" fill="#0E2E57"/>
<path d="M41.14 50.1255C41.14 49.1665 41.9172 48.3892 42.876 48.3892C43.8347 48.3892 44.6119 49.1665 44.6119 50.1255C44.6119 51.0844 43.8347 51.8618 42.876 51.8618C41.9172 51.8618 41.14 51.0844 41.14 50.1255Z" fill="#0E2E57"/>
<path d="M29.5169 50.1255C29.5169 49.1665 30.2942 48.3892 31.2528 48.3892C32.2116 48.3892 32.9889 49.1665 32.9889 50.1255C32.9889 51.0844 32.2116 51.8618 31.2528 51.8618C30.2942 51.8618 29.5169 51.0844 29.5169 50.1255Z" fill="#0E2E57"/>
<path d="M46.8512 44.7418C46.8512 43.7828 47.6285 43.0055 48.5873 43.0055C49.5459 43.0055 50.3232 43.7828 50.3232 44.7418C50.3232 45.7008 49.5459 46.4782 48.5873 46.4782C47.6285 46.4782 46.8512 45.7008 46.8512 44.7418Z" fill="#0E2E57"/>
<path d="M35.4288 44.7418C35.4288 43.7828 36.206 43.0055 37.1647 43.0055C38.1234 43.0055 38.9007 43.7828 38.9007 44.7418C38.9007 45.7008 38.1234 46.4782 37.1647 46.4782C36.206 46.4782 35.4288 45.7008 35.4288 44.7418Z" fill="#0E2E57"/>
<path d="M18.3013 16.4465C17.6081 17.1212 16.788 17.5804 16.022 17.5804C16.1724 21.3056 19.8813 25.3008 23.0974 25.3008H27.1015C21.5589 23.957 17.7882 19.8547 18.3013 16.4465Z" fill="#84B5CC"/>
<path d="M35.1184 10.2627C36.0863 9.00744 37.3819 9.49177 38.3723 10.3813C39.4868 11.3824 40.9452 10.1732 40.2918 8.8363C39.2812 6.76876 35.5797 5.36583 33.346 8.55952C32.2172 10.1732 34.0426 11.6577 35.1184 10.2627Z" fill="#0E2E57"/>
<path d="M48.0291 50.1255C48.0291 49.7617 48.3238 49.4668 48.6875 49.4668C49.0512 49.4668 49.346 49.7617 49.346 50.1255C49.346 50.4892 49.0512 50.7842 48.6875 50.7842C48.3238 50.7842 48.0291 50.4892 48.0291 50.1255Z" fill="#0E2E57"/>
<path d="M36.4059 50.1255C36.4059 49.7617 36.7007 49.4668 37.0644 49.4668C37.4281 49.4668 37.7229 49.7617 37.7229 50.1255C37.7229 50.4892 37.4281 50.7842 37.0644 50.7842C36.7007 50.7842 36.4059 50.4892 36.4059 50.1255Z" fill="#0E2E57"/>
<path d="M42.2175 44.7418C42.2175 44.3781 42.5123 44.0831 42.876 44.0831C43.2397 44.0831 43.5344 44.3781 43.5344 44.7418C43.5344 45.1056 43.2397 45.4005 42.876 45.4005C42.5123 45.4005 42.2175 45.1056 42.2175 44.7418Z" fill="#0E2E57"/>
<path d="M53.64 44.7418C53.64 44.3781 53.9347 44.0831 54.2984 44.0831C54.6621 44.0831 54.9569 44.3781 54.9569 44.7418C54.9569 45.1056 54.6621 45.4005 54.2984 45.4005C53.9347 45.4005 53.64 45.1056 53.64 44.7418Z" fill="#0E2E57"/>
<path d="M30.795 44.7418C30.795 44.3781 31.0898 44.0831 31.4535 44.0831C31.8172 44.0831 32.112 44.3781 32.112 44.7418C32.112 45.1056 31.8172 45.4005 31.4535 45.4005C31.0898 45.4005 30.795 45.1056 30.795 44.7418Z" fill="#0E2E57"/>
<path d="M23.771 50.1254C23.771 49.5931 24.2025 49.1616 24.7346 49.1616C25.2668 49.1616 25.6981 49.5931 25.6981 50.1254C25.6981 50.6576 25.2668 51.0892 24.7346 51.0892C24.2025 51.0892 23.771 50.6576 23.771 50.1254Z" fill="#0E2E57"/>
<path d="M35.1373 38.8102C35.1373 38.2779 35.5688 37.8464 36.1009 37.8464C36.6331 37.8464 37.0644 38.2779 37.0644 38.8102C37.0644 39.3424 36.6331 39.774 36.1009 39.774C35.5688 39.774 35.1373 39.3424 35.1373 38.8102Z" fill="#0E2E57"/>
<path d="M25.9205 44.7419C25.9205 44.0895 26.4493 43.5607 27.1015 43.5607C27.7536 43.5607 28.2823 44.0895 28.2823 44.7419C28.2823 45.3943 27.7536 45.9231 27.1015 45.9231C26.4493 45.9231 25.9205 45.3943 25.9205 44.7419Z" fill="#0E2E57"/>
<path d="M50.6586 41.3087C50.6586 40.6563 51.1873 40.1274 51.8395 40.1274C52.4917 40.1274 53.0205 40.6563 53.0205 41.3087C53.0205 41.9609 52.4917 42.4898 51.8395 42.4898C51.1873 42.4898 50.6586 41.9609 50.6586 41.3087Z" fill="#84B5CC"/>
<path d="M29.478 38.8103C29.478 38.0828 30.0676 37.4929 30.795 37.4929C31.5223 37.4929 32.112 38.0828 32.112 38.8103C32.112 39.5378 31.5223 40.1275 30.795 40.1275C30.0676 40.1275 29.478 39.5378 29.478 38.8103Z" fill="#0E2E57"/>
<path d="M40.9006 38.8103C40.9006 38.0828 41.4901 37.4929 42.2175 37.4929C42.9448 37.4929 43.5344 38.0828 43.5344 38.8103C43.5344 39.5378 42.9448 40.1275 42.2175 40.1275C41.4901 40.1275 40.9006 39.5378 40.9006 38.8103Z" fill="#0E2E57"/>
<path d="M37.4628 32.9697C37.4628 32.2422 38.0524 31.6523 38.7798 31.6523C39.5071 31.6523 40.0968 32.2422 40.0968 32.9697C40.0968 33.6972 39.5071 34.2869 38.7798 34.2869C38.0524 34.2869 37.4628 33.6972 37.4628 32.9697Z" fill="#0E2E57"/>
<path d="M54.9792 32.1984L52.8566 34.3215L61.0576 51.6925C61.3913 52.3993 62.2322 52.7018 62.939 52.368C63.6457 52.0341 63.9481 51.189 63.6144 50.4822L54.9792 32.1984Z" fill="#0E2E57"/>
<path d="M27.1519 29.0377L17.2223 50.1363C16.8895 50.8436 17.1945 51.6853 17.9016 52.0182C18.6088 52.351 19.4503 52.046 19.7831 51.3386L29.3309 31.0564L32.8886 35.0252C33.4103 35.6072 34.3046 35.6555 34.8866 35.1337C35.4686 34.6119 35.5168 33.7174 34.9952 33.1352L31.3207 29.0377C29.9845 29.0375 28.5369 29.0376 27.1519 29.0377Z" fill="#0E2E57"/>
<path d="M5.84351 56.9268C6.42678 56.9268 6.97789 57.0347 7.49684 57.2505C8.01591 57.4663 8.47954 57.7785 8.88773 58.1867C9.29605 58.595 9.60801 59.0617 9.82374 59.5867C10.0396 60.1117 10.1474 60.66 10.1474 61.2317C10.1474 61.815 10.0396 62.3662 9.82374 62.8854C9.60801 63.4046 9.29605 63.8683 8.88773 64.2766C8.47954 64.6849 8.01591 64.9971 7.49684 65.2129C6.97789 65.4286 6.42678 65.5366 5.84351 65.5366H2.65932V67.8466C2.65932 68.2198 2.53106 68.5348 2.27442 68.7915C2.0179 69.0482 1.70298 69.1765 1.32966 69.1765C0.956465 69.1765 0.641546 69.0482 0.384902 68.7915C0.128387 68.5348 0 68.2198 0 67.8466V58.2567C0 57.8834 0.128387 57.5685 0.384902 57.3118C0.641546 57.055 0.956465 56.9268 1.32966 56.9268H5.84351ZM2.65932 59.5867V62.8767H5.84351C6.06516 62.8767 6.27807 62.8329 6.4821 62.7454C6.68625 62.6579 6.86121 62.5412 7.00696 62.3954C7.15284 62.2496 7.26939 62.0775 7.35687 61.8792C7.44435 61.6809 7.48809 61.465 7.48809 61.2317C7.48809 61.01 7.44435 60.8 7.35687 60.6017C7.26939 60.4034 7.15284 60.2284 7.00696 60.0767C6.86121 59.925 6.68625 59.8055 6.4821 59.718C6.27807 59.6305 6.06516 59.5867 5.84351 59.5867H2.65932Z" fill="#0E2E57"/>
<path d="M15.676 57.2417C16.4808 56.9035 17.3031 56.7343 18.1429 56.7343C18.9826 56.7343 19.8049 56.9035 20.6097 57.2417C21.3562 57.5567 22.0211 58.0059 22.6042 58.5892C23.1875 59.1609 23.6424 59.8317 23.9689 60.6017C24.1322 60.9867 24.2547 61.3862 24.3363 61.8004C24.418 62.2146 24.4587 62.6316 24.4587 63.0516C24.4587 63.9266 24.2955 64.7491 23.9689 65.5191C23.6539 66.2658 23.1991 66.9366 22.6042 67.5315C22.0211 68.1148 21.3562 68.564 20.6097 68.879C19.8399 69.2057 19.0176 69.369 18.1429 69.369C17.2681 69.369 16.4458 69.2057 15.676 68.879C14.9296 68.564 14.2648 68.1148 13.6815 67.5315C13.0984 66.9366 12.6435 66.2658 12.3168 65.5191C11.9903 64.7491 11.827 63.9266 11.827 63.0516C11.827 62.6316 11.8679 62.2146 11.9494 61.8004C12.0311 61.3862 12.1536 60.9867 12.3168 60.6017C12.6552 59.8317 13.1101 59.1609 13.6815 58.5892C14.2648 58.0059 14.9296 57.5567 15.676 57.2417ZM14.4863 63.0516C14.4863 63.5649 14.5825 64.0433 14.775 64.4866C14.9674 64.9299 15.2298 65.3149 15.5623 65.6416C15.8947 65.9683 16.2825 66.2278 16.7257 66.4203C17.169 66.6128 17.6414 66.7091 18.1429 66.7091C18.6444 66.7091 19.1168 66.6128 19.56 66.4203C20.0033 66.2278 20.391 65.9683 20.7234 65.6416C21.0559 65.3149 21.3183 64.9299 21.5107 64.4866C21.7032 64.0433 21.7994 63.5649 21.7994 63.0516C21.7994 62.5499 21.7032 62.0774 21.5107 61.6342C21.3183 61.1909 21.0559 60.8029 20.7234 60.4704C20.391 60.1379 20.0033 59.8754 19.56 59.6829C19.1168 59.4905 18.6444 59.3942 18.1429 59.3942C17.6414 59.3942 17.169 59.4905 16.7257 59.6829C16.2825 59.8754 15.8947 60.1379 15.5623 60.4704C15.2298 60.8029 14.9674 61.1909 14.775 61.6342C14.5825 62.0774 14.4863 62.5499 14.4863 63.0516Z" fill="#0E2E57"/>
<path d="M26.9781 58.2567C26.9781 57.8834 27.1065 57.5685 27.363 57.3118C27.6197 57.055 27.9346 56.9268 28.3078 56.9268C28.6811 56.9268 28.996 57.055 29.2525 57.3118C29.5092 57.5685 29.6374 57.8834 29.6374 58.2567V67.8466C29.6374 68.2198 29.5092 68.5348 29.2525 68.7915C28.996 69.0482 28.6811 69.1765 28.3078 69.1765C27.9346 69.1765 27.6197 69.0482 27.363 68.7915C27.1065 68.5348 26.9781 68.2198 26.9781 67.8466V58.2567Z" fill="#0E2E57"/>
<path d="M33.5914 57.0143C33.8481 56.921 34.1105 56.9093 34.3787 56.9793C34.6471 57.0493 34.8745 57.1893 35.061 57.3992C35.7143 58.1925 36.3791 58.9975 37.0555 59.8142C37.3472 60.1642 37.6504 60.5287 37.9653 60.9079C38.2802 61.2871 38.6011 61.6692 38.9276 62.0542C39.2542 62.4392 39.5779 62.8212 39.8986 63.2004C40.2194 63.5796 40.5314 63.9383 40.8346 64.2766V58.2567C40.8346 57.8834 40.963 57.5685 41.2195 57.3118C41.4761 57.055 41.791 56.9268 42.1642 56.9268C42.5376 56.9268 42.8525 57.055 43.109 57.3118C43.3656 57.5685 43.4939 57.8834 43.4939 58.2567V67.8466C43.4939 68.1148 43.4152 68.3658 43.2577 68.599C43.1002 68.8323 42.8933 68.9957 42.6366 69.089C42.3684 69.1823 42.1002 69.194 41.8318 69.124C41.5636 69.054 41.3419 68.914 41.167 68.704C40.5022 67.9108 39.8315 67.1058 39.155 66.2891C38.5719 65.5891 37.945 64.8454 37.2742 64.0579C36.6036 63.2704 35.9708 62.5267 35.376 61.8267V67.8466C35.376 68.2198 35.2477 68.5348 34.9911 68.7915C34.7345 69.0482 34.4196 69.1765 34.0463 69.1765C33.6731 69.1765 33.3582 69.0482 33.1015 68.7915C32.845 68.5348 32.7166 68.2198 32.7166 67.8466V58.2567C32.7166 57.9884 32.7954 57.7375 32.9528 57.5043C33.1103 57.271 33.3232 57.1076 33.5914 57.0143Z" fill="#0E2E57"/>
<path d="M54.4461 56.9268C54.8194 56.9268 55.1343 57.055 55.3908 57.3118C55.6475 57.5685 55.7757 57.8834 55.7757 58.2567C55.7757 58.63 55.6475 58.945 55.3908 59.2017C55.1343 59.4584 54.8194 59.5867 54.4461 59.5867H51.8742V67.8466C51.8742 68.2198 51.746 68.5348 51.4893 68.7915C51.2328 69.0482 50.9179 69.1765 50.5446 69.1765C50.1714 69.1765 49.8565 69.0482 49.5998 68.7915C49.3433 68.5348 49.2149 68.2198 49.2149 67.8466V59.5867H46.6431C46.2699 59.5867 45.955 59.4584 45.6983 59.2017C45.4418 58.945 45.3134 58.63 45.3134 58.2567C45.3134 57.8834 45.4418 57.5685 45.6983 57.3118C45.955 57.055 46.2699 56.9268 46.6431 56.9268H54.4461Z" fill="#0E2E57"/>
<path d="M65.8182 66.5166C66.1915 66.5166 66.5064 66.6449 66.763 66.9016C67.0196 67.1583 67.1479 67.4733 67.1479 67.8466C67.1479 68.2198 67.0196 68.5348 66.763 68.7915C66.5064 69.0482 66.1915 69.1765 65.8182 69.1765H58.925C58.5518 69.1765 58.2369 69.0482 57.9802 68.7915C57.7237 68.5348 57.5953 68.2198 57.5953 67.8466V58.2567C57.5953 57.8834 57.7237 57.5685 57.9802 57.3118C58.2369 57.055 58.5518 56.9268 58.925 56.9268H65.8182C66.1915 56.9268 66.5064 57.055 66.763 57.3118C67.0196 57.5685 67.1479 57.8834 67.1479 58.2567C67.1479 58.63 67.0196 58.945 66.763 59.2017C66.5064 59.4584 66.1915 59.5867 65.8182 59.5867H60.2546V61.7217H64.9784C65.3517 61.7217 65.6667 61.85 65.9232 62.1067C66.1798 62.3634 66.3081 62.6784 66.3081 63.0516C66.3081 63.4249 66.1798 63.7399 65.9232 63.9966C65.6667 64.2533 65.3517 64.3816 64.9784 64.3816H60.2546V66.5166H65.8182Z" fill="#0E2E57"/>
<path d="M79.6397 67.0066C79.8963 67.2749 80.0158 67.5928 79.9983 67.9603C79.9809 68.3278 79.8381 68.634 79.5697 68.879C79.3015 69.1357 78.9836 69.2553 78.6162 69.2378C78.2488 69.2203 77.9368 69.0773 77.6802 68.809L74.6885 65.5366H72.3266V67.8466C72.3266 68.2198 72.1983 68.5348 71.9417 68.7915C71.6851 69.0482 71.3702 69.1765 70.9969 69.1765C70.6237 69.1765 70.3088 69.0482 70.0521 68.7915C69.7956 68.5348 69.6672 68.2198 69.6672 67.8466V58.2567C69.6672 57.8834 69.7956 57.5685 70.0521 57.3118C70.3088 57.055 70.6237 56.9268 70.9969 56.9268H75.4932C76.0765 56.9268 76.6276 57.0347 77.1466 57.2505C77.6656 57.4663 78.1293 57.7785 78.5375 58.1867C78.9458 58.595 79.2577 59.0617 79.4735 59.5867C79.6893 60.1117 79.7971 60.66 79.7971 61.2317C79.7971 61.815 79.6893 62.3662 79.4735 62.8854C79.2577 63.4046 78.9458 63.8683 78.5375 64.2766C78.4092 64.4049 78.278 64.5216 78.1438 64.6266C78.0098 64.7316 77.8726 64.8308 77.7327 64.9241L79.6397 67.0066ZM72.3266 62.8767H75.4932C75.7149 62.8767 75.9278 62.8329 76.1318 62.7454C76.336 62.6579 76.5109 62.5412 76.6567 62.3954C76.8026 62.2496 76.9191 62.0775 77.0066 61.8792C77.0941 61.6809 77.1378 61.465 77.1378 61.2317C77.1378 61.01 77.0941 60.8 77.0066 60.6017C76.9191 60.4034 76.8026 60.2284 76.6567 60.0767C76.5109 59.925 76.336 59.8055 76.1318 59.718C75.9278 59.6305 75.7149 59.5867 75.4932 59.5867H72.3266V62.8767Z" fill="#0E2E57"/>
<path d="M26.3179 73.4634C26.3179 73.2437 26.3934 73.0584 26.5443 72.9075C26.6953 72.7564 26.8806 72.681 27.1001 72.681C27.3196 72.681 27.5049 72.7564 27.6558 72.9075C27.8068 73.0584 27.8822 73.2437 27.8822 73.4634V78.3221H31.1549C31.3745 78.3221 31.5597 78.3975 31.7106 78.5486C31.8617 78.6995 31.9371 78.8848 31.9371 79.1044C31.9371 79.324 31.8617 79.5093 31.7106 79.6603C31.5597 79.8113 31.3745 79.8868 31.1549 79.8868H27.1001C26.8806 79.8868 26.6953 79.8113 26.5443 79.6603C26.3934 79.5093 26.3179 79.324 26.3179 79.1044V73.4634Z" fill="#0E2E57"/>
<path d="M39.5322 78.7442C39.6283 78.9363 39.6437 79.1353 39.5785 79.3412C39.5134 79.5471 39.3847 79.698 39.1925 79.7941C39.0005 79.8971 38.8015 79.9159 38.5956 79.8508C38.3898 79.7855 38.2389 79.6568 38.1428 79.4647C38.1086 79.396 38.0708 79.324 38.0296 79.2486C37.961 79.125 37.8616 78.9363 37.7312 78.6824H34.0674C33.9371 78.9363 33.8376 79.125 33.7689 79.2486C33.7278 79.324 33.6901 79.396 33.6557 79.4647C33.5598 79.6568 33.4087 79.7855 33.2029 79.8508C32.9971 79.9159 32.7982 79.8971 32.606 79.7941C32.4139 79.698 32.2853 79.5471 32.2201 79.3412C32.155 79.1353 32.1738 78.9363 32.2767 78.7442L35.2097 73.1031C35.2784 72.9726 35.3744 72.8697 35.4979 72.7943C35.6214 72.7187 35.7552 72.681 35.8993 72.681C36.0434 72.681 36.1771 72.7187 36.3006 72.7943C36.4241 72.8697 36.5202 72.9726 36.5888 73.1031L39.5322 78.7442ZM37.021 77.2207L35.8993 75.0692L34.7775 77.2207H37.021Z" fill="#0E2E57"/>
<path d="M44.1325 72.681C44.4206 72.681 44.6917 72.7358 44.9455 72.8457C45.1994 72.9555 45.4207 73.1064 45.6093 73.2987C45.798 73.4908 45.9472 73.7138 46.057 73.9678C46.1668 74.2216 46.2216 74.4928 46.2216 74.781C46.2216 75.0211 46.1856 75.2459 46.1136 75.4552C46.0415 75.6645 45.9369 75.8584 45.7997 76.0369C45.9919 76.2427 46.1428 76.4777 46.2525 76.742C46.3624 77.0062 46.4172 77.2927 46.4172 77.6015C46.4172 77.9172 46.3572 78.214 46.2371 78.492C46.117 78.7699 45.9541 79.0118 45.7482 79.2177C45.5424 79.4236 45.3005 79.5865 45.0227 79.7066C44.7448 79.8267 44.4482 79.8868 44.1325 79.8868H41.4773C41.2578 79.8868 41.0725 79.8113 40.9215 79.6603C40.7706 79.5093 40.6951 79.324 40.6951 79.1044V73.4634C40.6951 73.2437 40.7706 73.0584 40.9215 72.9075C41.0725 72.7564 41.2578 72.681 41.4773 72.681H44.1325ZM42.2594 74.2457V75.4089H44.1325C44.2765 75.4089 44.4 75.3523 44.503 75.2391C44.6059 75.1258 44.6573 74.9902 44.6573 74.8325C44.6573 74.6746 44.6059 74.5373 44.503 74.4207C44.4 74.304 44.2765 74.2457 44.1325 74.2457H42.2594ZM42.2594 76.7265V78.3221H44.1325C44.3315 78.3221 44.5013 78.2449 44.6419 78.0905C44.7826 77.9361 44.8529 77.749 44.8529 77.5295C44.8529 77.3098 44.7826 77.1211 44.6419 76.9633C44.5013 76.8054 44.3315 76.7265 44.1325 76.7265H42.2594Z" fill="#0E2E57"/>
<path d="M48.7842 73.0516C49.2508 72.729 49.8374 72.5677 50.5441 72.5677C50.894 72.5677 51.2542 72.6054 51.6247 72.681C51.9952 72.7564 52.3142 72.8525 52.5818 72.9692C52.7808 73.0652 52.9181 73.2128 52.9935 73.4119C53.069 73.6108 53.0587 73.8098 52.9626 74.0089C52.8734 74.2078 52.7293 74.3451 52.5303 74.4207C52.3314 74.4961 52.1324 74.4892 51.9334 74.4001C51.7619 74.3245 51.5475 74.2611 51.2902 74.2096C51.0329 74.1582 50.7842 74.1324 50.5441 74.1324C50.3588 74.1324 50.189 74.1495 50.0346 74.1839C49.8803 74.2181 49.7551 74.2696 49.659 74.3383C49.5287 74.4343 49.4635 74.5613 49.4635 74.7192C49.4635 74.7672 49.4721 74.8152 49.4892 74.8633C49.5064 74.9113 49.5596 74.9628 49.6487 75.0177C49.7242 75.0657 49.8391 75.1172 49.9935 75.1721C50.1479 75.2269 50.3658 75.275 50.647 75.3162C51.4291 75.4328 52.0466 75.6456 52.4995 75.9544C52.7808 76.1466 53.0072 76.3798 53.1787 76.6544C53.3571 76.9427 53.4463 77.2754 53.4463 77.6529C53.4463 78.0303 53.3639 78.3735 53.1993 78.6823C53.0346 78.9912 52.7979 79.2518 52.4892 79.4647C51.9678 79.8215 51.3194 80 50.5441 80C49.9609 80 49.4429 79.9141 48.9901 79.7426C48.6539 79.6121 48.3383 79.4338 48.0432 79.2073C47.8718 79.07 47.7723 78.895 47.7448 78.6823C47.7174 78.4695 47.7723 78.2774 47.9095 78.1059C48.0399 77.9342 48.2114 77.8348 48.424 77.8074C48.6368 77.7798 48.8289 77.8348 49.0003 77.9721C49.0621 78.0201 49.1393 78.0715 49.2319 78.1265C49.3245 78.1813 49.4326 78.2311 49.5561 78.2757C49.6796 78.3202 49.822 78.3581 49.9832 78.389C50.1445 78.4198 50.3314 78.4353 50.5441 78.4353C50.9901 78.4353 51.3435 78.3495 51.6041 78.1779C51.7893 78.0544 51.882 77.8794 51.882 77.6529C51.882 77.598 51.8683 77.5362 51.8408 77.4677C51.8134 77.3989 51.7414 77.3269 51.6247 77.2515C51.5287 77.1897 51.388 77.1228 51.2027 77.0507C51.0175 76.9787 50.7602 76.9186 50.4309 76.8706C49.7586 76.7677 49.2165 76.5892 48.8048 76.3353C48.5236 76.15 48.3075 75.9304 48.1564 75.6765C47.985 75.4019 47.8992 75.0828 47.8992 74.7192C47.8992 74.3692 47.9747 74.0517 48.1256 73.767C48.2766 73.4821 48.4961 73.2437 48.7842 73.0516Z" fill="#0E2E57"/>
</g>
<defs>
<clipPath id="clip0_1325_384">
<rect width="80" height="80" fill="white"/>
</clipPath>
</defs>
</svg>
