<svg width="23" height="23" viewBox="0 0 23 23" fill="none" xmlns="http://www.w3.org/2000/svg">
<path d="M11.04 0C4.94846 0 0 4.94846 0 11.04C0 17.1315 4.94846 22.08 11.04 22.08C17.1315 22.08 22.08 17.1315 22.08 11.04C22.08 4.94846 17.1315 0 11.04 0ZM11.04 0.96C16.6127 0.96 21.12 5.46728 21.12 11.04C21.12 16.6127 16.6127 21.12 11.04 21.12C5.46728 21.12 0.96 16.6127 0.96 11.04C0.96 5.46728 5.46728 0.96 11.04 0.96ZM15.4022 5.77688C15.0739 5.77688 14.705 5.85292 14.2734 6.00844C13.6034 6.24988 5.72195 9.59624 4.82531 9.97688C4.31267 10.1948 3.35813 10.6002 3.35813 11.5669C3.35813 12.2077 3.73361 12.666 4.47281 12.93C4.87025 13.0716 5.8142 13.3577 6.36188 13.5084C6.5942 13.5723 6.84108 13.605 7.095 13.605C7.5918 13.605 8.09176 13.4812 8.48344 13.2628C8.48008 13.3435 8.48228 13.425 8.49188 13.5066C8.55092 14.0106 8.8617 14.4846 9.3225 14.775C9.62394 14.9651 12.0861 16.6148 12.4538 16.8769C12.9702 17.246 13.5412 17.4413 14.1038 17.4413C15.179 17.4413 15.5397 16.3311 15.7134 15.7978C15.9654 15.0236 16.9091 8.72743 17.0156 7.61719C17.0881 6.85639 16.771 6.2299 16.1672 5.94094C15.9411 5.83198 15.683 5.77688 15.4022 5.77688ZM15.4022 6.73688C15.5342 6.73688 15.652 6.75871 15.7519 6.80719C15.9789 6.91615 16.0944 7.15905 16.0594 7.52625C15.9432 8.73729 15.0019 14.8843 14.8013 15.5006C14.6294 16.0277 14.4484 16.4813 14.1038 16.4813C13.7591 16.4813 13.3826 16.3604 13.0116 16.095C12.6405 15.83 10.1766 14.1777 9.83438 13.9622C9.53438 13.7731 9.21687 13.3016 9.66375 12.8456C10.0319 12.4703 12.8246 9.75981 13.0631 9.52125C13.2407 9.34317 13.1577 9.12844 12.9834 9.12844C12.9234 9.12844 12.8516 9.15373 12.7772 9.21469C12.4853 9.45325 8.4167 12.1758 8.06438 12.3947C7.8311 12.5396 7.46988 12.6441 7.095 12.6441C6.93516 12.6441 6.77333 12.6249 6.61781 12.5822C6.07637 12.4329 5.16009 12.1549 4.79625 12.0253C4.44633 11.9005 4.31906 11.781 4.31906 11.5669C4.31906 11.2626 4.74861 11.0525 5.20125 10.86C5.67933 10.657 13.9517 7.14405 14.5988 6.91125C14.8983 6.80277 15.1723 6.73688 15.4022 6.73688Z" fill="white"/>
</svg>
