<svg width="26" height="21" viewBox="0 0 26 21" fill="none" xmlns="http://www.w3.org/2000/svg">
<path d="M17.1134 0C14.1232 0 11.6915 2.43164 11.6915 5.42188C11.6915 5.60156 11.7365 5.77734 11.754 5.95312C8.05676 5.59961 4.78723 3.81836 2.56653 1.09375C2.46301 0.962891 2.30286 0.892578 2.13489 0.904297C1.96887 0.916016 1.82044 1.01172 1.7384 1.15625C1.27161 1.95898 1.00403 2.88281 1.00403 3.875C1.00403 5.07617 1.43372 6.17578 2.09778 7.07812C1.96887 7.02148 1.82825 6.99023 1.70715 6.92188C1.55286 6.83984 1.36731 6.84375 1.21692 6.93359C1.06653 7.02344 0.974732 7.18555 0.972779 7.35938V7.42188C0.972779 9.26367 1.9259 10.8633 3.33215 11.8438C3.31653 11.8418 3.3009 11.8477 3.28528 11.8438C3.1134 11.8145 2.93958 11.875 2.82434 12.0059C2.70911 12.1367 2.672 12.3184 2.72278 12.4844C3.28137 14.2207 4.70715 15.5469 6.47278 16.0312C5.06653 16.8672 3.43567 17.3594 1.6759 17.3594C1.29505 17.3594 0.929811 17.3398 0.566529 17.2969C0.332154 17.2656 0.107545 17.4023 0.0294201 17.625C-0.050658 17.8477 0.0372326 18.0957 0.238404 18.2188C2.49426 19.666 5.172 20.5156 8.0509 20.5156C12.7169 20.5156 16.3771 18.5664 18.8322 15.7812C21.2872 12.9961 22.5665 9.37891 22.5665 6C22.5665 5.85742 22.5548 5.71875 22.5509 5.57812C23.4669 4.87695 24.2853 4.05469 24.9259 3.09375C25.0529 2.9082 25.0392 2.66016 24.8927 2.48828C24.7482 2.31641 24.504 2.26367 24.3009 2.35938C24.0431 2.47461 23.7423 2.48633 23.4728 2.57812C23.8282 2.10352 24.1329 1.5918 24.3165 1.01562C24.379 0.818359 24.3107 0.601562 24.1486 0.472656C23.9865 0.345703 23.7599 0.330078 23.5822 0.4375C22.7286 0.943359 21.7833 1.29883 20.7853 1.51562C19.8165 0.609375 18.5411 0 17.1134 0ZM17.1134 1C18.3888 1 19.5411 1.54492 20.3478 2.40625C20.4689 2.53125 20.6466 2.58398 20.8165 2.54688C21.4689 2.41797 22.088 2.22852 22.6915 1.98438C22.3439 2.45312 21.9142 2.85352 21.4103 3.15625C21.1818 3.26758 21.0743 3.53125 21.1583 3.77148C21.2404 4.00977 21.4904 4.14844 21.7384 4.09375C22.2384 4.0332 22.6837 3.83008 23.1603 3.70312C22.7325 4.16602 22.2638 4.58398 21.754 4.95312C21.6154 5.05469 21.5392 5.21875 21.5509 5.39062C21.5587 5.59375 21.5665 5.79492 21.5665 6C21.5665 9.125 20.3673 12.5176 18.0822 15.1094C15.797 17.7012 12.4415 19.5156 8.0509 19.5156C6.05676 19.5156 4.17395 19.0742 2.47278 18.2969C4.58215 18.1348 6.52747 17.3887 8.09778 16.1562C8.26184 16.0254 8.32629 15.8066 8.25989 15.6074C8.19348 15.4082 8.00989 15.2715 7.8009 15.2656C6.15247 15.2363 4.77161 14.2773 4.03528 12.9219C4.06262 12.9219 4.08606 12.9219 4.1134 12.9219C4.60754 12.9219 5.09583 12.8594 5.5509 12.7344C5.76965 12.6699 5.92004 12.4668 5.91223 12.2383C5.90442 12.0098 5.74231 11.8145 5.51965 11.7656C3.74036 11.4062 2.40637 9.95703 2.09778 8.15625C2.60169 8.33008 3.11731 8.4668 3.6759 8.48438C3.90442 8.49805 4.11145 8.35547 4.18176 8.13867C4.25208 7.92188 4.16614 7.68359 3.97278 7.5625C2.78528 6.76758 2.00403 5.41406 2.00403 3.875C2.00403 3.30469 2.15247 2.78125 2.34778 2.28125C4.84778 5.02539 8.34778 6.84766 12.3009 7.04688C12.4572 7.05469 12.6095 6.99023 12.7111 6.87109C12.8126 6.75 12.8517 6.58984 12.8165 6.4375C12.7404 6.11328 12.6915 5.76953 12.6915 5.42188C12.6915 2.97266 14.6642 1 17.1134 1Z" fill="white"/>
</svg>
